<svg width="39" height="34" viewBox="0 0 39 34" fill="none" xmlns="http://www.w3.org/2000/svg">
<g clip-path="url(#clip0_211_2080)">
<path d="M38.8874 13.9504C38.8913 13.9214 38.8913 13.8921 38.8874 13.863C38.8911 13.8394 38.8911 13.8153 38.8874 13.7916L38.6037 11.7502C38.5628 11.506 38.4534 11.2778 38.2878 11.091L38.2391 11.0354L38.1501 10.948L33.2403 6.80181L33.378 6.93685C33.2653 6.80467 33.1239 6.69895 32.964 6.62747C32.8042 6.55599 32.63 6.52057 32.4544 6.52381H30.9636C30.7212 6.5191 30.4843 6.59466 30.2911 6.73827C30.0883 6.59553 29.8441 6.52036 29.5944 6.52381H28.1036C27.9081 6.5207 27.7152 6.56827 27.5445 6.66173C27.3738 6.75518 27.2313 6.89119 27.1314 7.05598C26.9774 7.29136 26.9196 7.57496 26.9693 7.85028L27.1557 9.13702C27.0322 9.06841 26.8925 9.03281 26.7506 9.03377H19.5317C19.2727 9.03537 19.0197 9.10979 18.8025 9.24822C18.5926 9.37707 18.424 9.56158 18.3164 9.78039L17.7574 9.31177C17.5374 9.11218 17.2469 9.004 16.9472 9.00994H5.62067C5.36075 9.01458 5.1066 9.08577 4.88341 9.21645C4.57806 9.39167 4.35429 9.67655 4.25954 10.0107L0.662273 21.806C0.595059 22.0003 0.588447 22.2099 0.643284 22.408C0.698121 22.606 0.811922 22.7836 0.970151 22.918C1.01138 22.9522 1.05467 22.9841 1.09979 23.0132C1.09979 23.0132 1.02686 22.9656 0.986346 22.9259L5.89616 27.08C6.10385 27.2675 6.3754 27.3723 6.65769 27.3739H18.0734C18.3341 27.3673 18.5884 27.2933 18.8107 27.1594C18.9364 27.0921 19.0488 27.0033 19.1428 26.8973L19.1834 26.8417L19.2482 26.7623L19.2968 26.6749L19.8315 27.1277C20.0362 27.3077 20.3019 27.4067 20.5769 27.4057H32.0168C32.2773 27.3972 32.5311 27.3234 32.7541 27.1912C32.877 27.1198 32.9888 27.0315 33.0863 26.9291L33.1268 26.8735L33.1916 26.7941C33.2261 26.7438 33.256 26.6907 33.2807 26.6352C33.3072 26.5871 33.3289 26.5365 33.3456 26.4843L36.6269 15.7138V15.6184C36.6309 15.5815 36.6309 15.5442 36.6269 15.5072V15.4358C36.6308 15.4121 36.6308 15.3879 36.6269 15.3642C36.6305 15.314 36.6305 15.2636 36.6269 15.2133H37.6801C37.7717 15.2216 37.8639 15.2216 37.9556 15.2133H38.0285C38.0878 15.196 38.1449 15.172 38.1987 15.1419H38.2797L38.4255 15.0307L38.4903 14.983L38.6037 14.84V14.7924L38.6848 14.6573C38.6802 14.6311 38.6802 14.6042 38.6848 14.5779C38.6805 14.565 38.6805 14.5511 38.6848 14.5382C38.702 14.4916 38.7155 14.4438 38.7253 14.3952C38.7215 14.3795 38.7215 14.3632 38.7253 14.3475C38.7213 14.3239 38.7213 14.2997 38.7253 14.2761C38.7253 14.2761 38.8874 13.9663 38.8874 13.9504Z" fill="black"/>
<path d="M17.2793 9.91546C17.3224 9.95359 17.3524 10.0037 17.3654 10.0591C17.3785 10.1145 17.3739 10.1725 17.3523 10.2252L13.7631 22.0125C13.7179 22.1412 13.6255 22.2488 13.5039 22.3143C13.4049 22.3792 13.2904 22.4176 13.1716 22.4255H1.76412C1.66669 22.4209 1.5744 22.3814 1.50485 22.3143C1.46348 22.2768 1.43444 22.228 1.42145 22.1743C1.40846 22.1206 1.41212 22.0642 1.43193 22.0125L5.0292 10.2252C5.07065 10.0949 5.16021 9.98445 5.28036 9.91546C5.38095 9.85523 5.49493 9.8198 5.61254 9.8122H17.0201C17.1167 9.81312 17.2094 9.85003 17.2793 9.91546ZM11.3244 19.6376L13.4714 12.6002H7.45981L5.32086 19.6376H11.3244ZM28.1684 10.0346C28.2073 10.0789 28.256 10.1141 28.3107 10.1375C28.3654 10.1609 28.4247 10.1719 28.4844 10.1696H29.967C30.0235 10.1702 30.0791 10.1566 30.1288 10.1302C30.1784 10.1038 30.2203 10.0654 30.2506 10.0187C30.2769 9.98223 30.2955 9.94093 30.3053 9.89727C30.315 9.85361 30.3157 9.80848 30.3073 9.76455L30.0156 7.66762C29.9879 7.57057 29.938 7.48096 29.8698 7.4055C29.8309 7.36116 29.7823 7.326 29.7275 7.30262C29.6728 7.27924 29.6134 7.26826 29.5538 7.27048H28.0712C28.0147 7.26994 27.959 7.28351 27.9094 7.30992C27.8598 7.33632 27.8179 7.37469 27.7876 7.4214C27.7309 7.53259 27.7066 7.60408 27.7309 7.66762L28.0307 9.76455C28.046 9.86665 28.0943 9.96126 28.1684 10.0346ZM32.8756 7.65174C32.8478 7.55468 32.798 7.46507 32.7298 7.38962C32.6925 7.34544 32.6453 7.31028 32.5919 7.28686C32.5385 7.26345 32.4804 7.2524 32.4219 7.25459H30.9311C30.8756 7.25304 30.8207 7.26625 30.7722 7.29281C30.7237 7.31938 30.6835 7.35833 30.6557 7.4055C30.6018 7.47597 30.5785 7.56449 30.5909 7.65174L30.8906 9.74866C30.9094 9.84968 30.9572 9.94336 31.0284 10.0187C31.068 10.0622 31.1168 10.0968 31.1713 10.1201C31.2259 10.1434 31.2848 10.1549 31.3443 10.1537H32.8351C32.8905 10.1545 32.9451 10.1409 32.9934 10.1144C33.0418 10.0879 33.0822 10.0495 33.1106 10.0028C33.1388 9.9673 33.1585 9.92601 33.1683 9.88204C33.1781 9.83806 33.1778 9.79249 33.1673 9.74866L32.8756 7.65174ZM26.864 10.8289L26.7181 9.79632H19.5317C19.4189 9.80241 19.3097 9.83807 19.2157 9.89957C19.156 9.93147 19.1041 9.97569 19.0635 10.0292C19.023 10.0827 18.9948 10.1441 18.9808 10.2093L18.3812 12.1792C18.3573 12.2284 18.3491 12.2836 18.3578 12.3375C18.3665 12.3914 18.3916 12.4414 18.4298 12.481C18.4981 12.544 18.5873 12.5807 18.681 12.5843H27.4149L25.2679 19.6217H16.5583C16.446 19.6242 16.3366 19.6572 16.2423 19.717C16.1277 19.7883 16.0441 19.8987 16.0074 20.0268L15.3997 21.9966C15.3799 22.0472 15.3747 22.1021 15.3847 22.1553C15.3947 22.2086 15.4195 22.2581 15.4564 22.2984C15.5226 22.3656 15.6125 22.4054 15.7076 22.4096H27.1475C27.2658 22.3996 27.3799 22.3615 27.4797 22.2984C27.5993 22.2325 27.6891 22.1247 27.7309 21.9966L31.0203 11.226H27.3177C27.2589 11.2272 27.2006 11.2165 27.1463 11.1946C27.0919 11.1728 27.0427 11.1402 27.0017 11.0989C26.9347 11.0269 26.8874 10.9395 26.864 10.8448V10.8289Z" fill="white"/>
</g>
<defs>
<clipPath id="clip0_211_2080">
<rect width="38.2838" height="20.8821" fill="white" transform="translate(0.606506 6.52361)"/>
</clipPath>
</defs>
</svg>
