<svg width="34" height="34" viewBox="0 0 34 34" fill="none" xmlns="http://www.w3.org/2000/svg">
<g clip-path="url(#clip0_211_2056)">
<path d="M31.785 9.70096C31.785 9.72449 31.785 9.75391 31.7789 9.77157C31.7483 10.001 31.7482 10.2305 31.7666 10.4659C31.7789 10.5247 31.7912 10.5836 31.8402 10.6307C31.9199 10.7189 32.0425 10.7013 32.0916 10.5954C32.1161 10.5424 32.1161 10.4894 32.1038 10.4365C32.0425 10.2129 32.0303 9.97751 32.0241 9.74803C32.0241 9.73626 32.0241 9.7186 32.0241 9.70096C32.0916 9.69507 32.1529 9.68918 32.208 9.68918C32.251 9.6833 32.2878 9.67742 32.3184 9.65976C32.4104 9.61269 32.4104 9.51266 32.3123 9.46559C32.2755 9.44793 32.2265 9.44205 32.1835 9.44205C32.0303 9.44793 31.877 9.44793 31.7237 9.44793C31.6686 9.44793 31.6134 9.45382 31.5582 9.4597C31.5275 9.46559 31.4907 9.46559 31.4662 9.48324C31.4233 9.50089 31.3988 9.53031 31.3988 9.5715C31.4049 9.61269 31.4233 9.63623 31.4662 9.65388C31.4907 9.67153 31.5214 9.67742 31.552 9.67742C31.6256 9.6833 31.7053 9.69507 31.785 9.70096ZM33.471 9.97163C33.471 9.97751 33.4771 9.98339 33.4771 9.98339C33.5016 10.1423 33.5262 10.2953 33.5446 10.4482C33.5507 10.5012 33.5568 10.5483 33.5936 10.5895C33.6733 10.6895 33.7959 10.6777 33.8511 10.5718C33.8756 10.5189 33.8818 10.4659 33.8695 10.4071C33.8327 10.2305 33.8143 10.054 33.7775 9.88336C33.753 9.77745 33.7224 9.67742 33.6917 9.58327C33.6733 9.52443 33.6304 9.48324 33.5568 9.47735C33.4833 9.46559 33.4281 9.50089 33.3974 9.55385C33.3606 9.60092 33.33 9.64799 33.3054 9.70096C33.2625 9.7951 33.2258 9.88925 33.1767 9.97751C33.1706 10.001 33.1644 10.0187 33.1522 10.0364C33.1461 10.0246 33.14 10.0187 33.14 10.0187C33.0602 9.8716 32.9867 9.72449 32.907 9.58327C32.8947 9.5715 32.8886 9.55973 32.8824 9.54796C32.8457 9.49501 32.8028 9.46559 32.7353 9.46559C32.674 9.47147 32.6249 9.50678 32.5943 9.55973C32.582 9.58327 32.582 9.60092 32.5759 9.62446C32.5514 9.81275 32.5207 10.001 32.4962 10.1893C32.4839 10.2953 32.4778 10.4012 32.4778 10.5071C32.4717 10.5306 32.4778 10.56 32.49 10.5836C32.5023 10.6307 32.5391 10.6601 32.5881 10.666C32.6495 10.6718 32.6924 10.6542 32.7108 10.6071C32.7291 10.5718 32.7353 10.5424 32.7414 10.513C32.766 10.4071 32.7843 10.307 32.8028 10.207C32.815 10.1482 32.8211 10.1011 32.8395 10.0364C32.8518 10.0599 32.864 10.0775 32.8763 10.0952C32.9315 10.1658 32.9867 10.2364 33.0541 10.2953C33.1215 10.3423 33.1767 10.3364 33.2319 10.2835C33.2442 10.2717 33.2503 10.2658 33.2625 10.2541C33.3177 10.1717 33.3852 10.0893 33.4403 10.0069C33.4526 9.99516 33.4587 9.98339 33.471 9.97163Z" fill="#3A3B7B"/>
<path d="M19.3448 9.81656C19.3022 9.92838 19.2941 10.0089 19.3138 10.0759C19.3355 10.167 19.3919 10.1968 19.4684 10.1736C20.1886 10.0027 21.7676 10.4878 22.3523 10.623C22.4901 10.6514 22.6023 10.4806 22.5082 10.3274C22.3709 10.1791 20.7925 9.54409 20.1903 9.50947C19.9542 9.49667 19.5322 9.43857 19.3448 9.81656Z" fill="#3A3B7B"/>
<path d="M25.5161 7.76094C25.5929 7.80346 25.6358 7.84401 25.657 7.88933C25.6885 7.94876 25.6719 7.98989 25.6189 8.01087C25.1429 8.23385 24.5094 9.19379 24.2538 9.52486C24.1918 9.60102 24.0488 9.55676 24.0272 9.43152C24.0317 9.2899 24.5931 8.24815 24.9065 7.96442C25.0297 7.85364 25.2331 7.63627 25.5161 7.76094Z" fill="#3A3B7B"/>
<path d="M21.7253 7.28839C21.8175 7.22169 21.9134 7.19832 21.9623 7.24166C22.6805 7.83116 23.0613 8.76469 23.2972 9.61931C23.306 9.63922 23.3066 9.66779 23.2995 9.6976C23.2966 9.72308 23.2772 9.74999 23.2464 9.77081C23.2135 9.7938 23.1851 9.8008 23.1718 9.78099C22.8571 9.37008 21.0593 7.7713 21.7253 7.28839Z" fill="#3A3B7B"/>
<path d="M6.51682 17.5088C6.68895 17.3858 6.87608 17.2834 7.07411 17.204C7.28129 17.1471 7.50211 17.1565 7.70322 17.2309C7.90428 17.3052 8.07473 17.4403 8.18867 17.6158C8.2906 17.7909 8.33046 17.993 8.30233 18.1918C8.27419 18.3905 8.17955 18.575 8.03262 18.7176C7.91872 18.8333 7.7894 18.934 7.64812 19.0172C7.0184 19.4076 6.38307 19.7767 5.74777 20.1671C5.61777 20.2649 5.47987 20.3525 5.33537 20.4292C5.11559 20.5344 4.86441 20.5626 4.62526 20.5089C4.38613 20.4552 4.17407 20.3229 4.02575 20.1351C3.91488 20.002 3.82131 19.8566 3.74711 19.7018C3.14524 18.4877 2.52108 17.2788 1.94151 16.0433C1.67401 15.5084 1.45667 14.8933 1.2449 14.2996C1.15328 14.1271 1.13539 13.9271 1.19503 13.7422C1.25468 13.5572 1.38716 13.4018 1.56429 13.3092C1.74143 13.2165 1.94924 13.1938 2.14353 13.246C2.33782 13.2981 2.50326 13.4209 2.60467 13.5882C2.91638 13.9858 3.1923 14.4081 3.42946 14.8506C4.03132 15.9203 4.60533 16.99 5.18491 18.0277C5.21865 18.085 5.25587 18.1403 5.29636 18.1935C5.73259 18.0174 6.14289 17.7873 6.51682 17.5088Z" fill="#3A3B7B"/>
<path d="M12.7397 17.1357C11.3632 18.6814 9.05607 18.291 7.89692 16.3013C7.07212 14.8892 6.92724 12.5572 8.72172 11.0863C9.10491 10.7783 9.56311 10.5686 10.0536 10.4765C10.655 10.3938 11.2683 10.4956 11.8057 10.7675C12.3432 11.0393 12.7774 11.4673 13.0463 11.9902C14.0271 13.7018 13.8877 15.8841 12.7397 17.1357ZM12.1824 13.5306C12.0362 13.11 11.7428 12.751 11.3521 12.5144C11.131 12.3631 10.8623 12.2896 10.5913 12.3061C10.3203 12.3227 10.0635 12.4284 9.86413 12.6053C9.06724 13.2846 8.90002 14.8946 9.47959 15.852C9.55348 16.0081 9.66195 16.1468 9.79754 16.2585C9.93312 16.3702 10.0925 16.4521 10.2645 16.4984C10.4365 16.5448 10.6169 16.5545 10.7932 16.5269C10.9696 16.4993 11.1375 16.4351 11.2852 16.3387C11.7172 16.0172 12.0341 15.5746 12.1919 15.0724C12.3497 14.57 12.3406 14.0331 12.1657 13.536L12.1824 13.5306Z" fill="#3A3B7B"/>
<path d="M18.3572 14.2046C18.2163 14.2337 18.0707 14.2354 17.929 14.2097C17.7874 14.1839 17.6525 14.1313 17.5324 14.0548C17.4273 13.9971 17.3368 13.9178 17.2675 13.8225C17.1982 13.7272 17.1517 13.6184 17.1315 13.5038C17.1112 13.3892 17.1177 13.2718 17.1504 13.1599C17.1831 13.048 17.2413 12.9445 17.3207 12.8567C17.459 12.6803 17.6554 12.5541 17.8779 12.4984C18.459 12.3365 19.0572 12.2378 19.6613 12.2042C19.794 12.1894 19.9284 12.2001 20.0567 12.2359C20.1851 12.2717 20.3046 12.3316 20.4085 12.4124C20.5123 12.4931 20.5983 12.5929 20.6614 12.7059C20.7244 12.819 20.7633 12.943 20.7758 13.0707C20.95 13.6978 20.969 14.3554 20.8315 14.9909C20.33 17.0447 18.6024 17.7508 16.663 17.0929C16.1187 16.917 15.6413 16.5892 15.2921 16.1515C14.8264 15.6244 14.4961 14.9997 14.328 14.3276C14.1918 13.7291 14.2067 13.1082 14.3716 12.5164C14.5364 11.9246 14.8463 11.3792 15.2754 10.9258C15.6827 10.433 16.2112 10.0452 16.8135 9.79726C17.1941 9.59593 17.6395 9.53868 18.0619 9.6368C18.1577 9.66225 18.2446 9.71185 18.3138 9.78044C18.3829 9.84903 18.4316 9.93412 18.4549 10.0269C18.4783 10.1197 18.4753 10.2167 18.4463 10.308C18.4174 10.3993 18.3635 10.4815 18.2903 10.5461C18.1512 10.667 18 10.7745 17.8389 10.867C17.3435 11.1698 16.9123 11.56 16.5683 12.017C16.3428 12.3126 16.1875 12.6522 16.1134 13.0116C16.0392 13.3711 16.048 13.7418 16.1392 14.0976C16.2656 14.5828 16.5461 15.0183 16.9417 15.3438C18.1677 16.4136 19.7615 15.3813 19.4829 13.9211C19.0761 14.0174 18.7194 14.119 18.3572 14.2046Z" fill="#3A3B7B"/>
<path d="M25.8472 17.2212C24.036 18.291 21.974 17.2212 21.5226 14.9748C21.1938 13.3702 21.818 11.1237 24.0026 10.2679C24.4674 10.0898 24.9715 10.0272 25.4682 10.0861C26.065 10.1909 26.6125 10.4729 27.0334 10.8923C27.4543 11.3116 27.7275 11.8472 27.8144 12.4235C28.1822 14.3329 27.3463 16.3708 25.8472 17.2212ZM26.4769 13.6216C26.4764 13.1772 26.3126 12.7473 26.0144 12.4074C25.855 12.1972 25.6245 12.0466 25.3623 11.9812C25.1001 11.9159 24.8224 11.9398 24.5765 12.0491C23.5957 12.4555 22.9047 13.9318 23.1555 15.0176C23.1747 15.188 23.2323 15.3523 23.3245 15.4991C23.4167 15.6459 23.5412 15.7715 23.6894 15.8673C23.8374 15.9631 24.0055 16.0266 24.1819 16.0536C24.3582 16.0805 24.5386 16.0701 24.7103 16.0231C25.2287 15.8493 25.6776 15.5245 25.9943 15.0939C26.3111 14.6633 26.4798 14.1486 26.4769 13.6216Z" fill="#3A3B7B"/>
<path d="M29.6459 17.6706C29.6186 17.8663 29.5114 18.0436 29.3478 18.1635C29.1842 18.2833 28.9777 18.336 28.7738 18.3097C28.5698 18.2835 28.3851 18.1805 28.2602 18.0235C28.1353 17.8666 28.0805 17.6684 28.1078 17.4727C28.1352 17.2769 28.2424 17.0996 28.406 16.9797C28.5695 16.8598 28.776 16.8072 28.98 16.8335C29.1839 16.8597 29.3687 16.9626 29.4936 17.1196C29.6185 17.2766 29.6733 17.4748 29.6459 17.6706ZM29.1611 10.4552C29.2671 10.2998 29.4226 10.1815 29.6044 10.1179C29.7861 10.0542 29.9845 10.0487 30.1698 10.1021C30.3582 10.1474 30.5246 10.2534 30.6413 10.4023C30.758 10.5513 30.8177 10.7342 30.8107 10.9205C30.7861 11.2192 30.7395 11.5159 30.6714 11.8084C30.4875 12.7979 30.3091 13.7874 30.1141 14.7662C30.0249 15.1567 29.9079 15.5311 29.7797 15.9269C29.7351 16.0506 29.6606 16.1624 29.5624 16.2531C29.5013 16.3214 29.4233 16.3738 29.3355 16.4054C29.2477 16.437 29.1531 16.4469 29.0603 16.4341C28.9675 16.4213 28.8796 16.3862 28.8047 16.3322C28.7298 16.2781 28.6703 16.2068 28.6317 16.1248C28.5654 15.9777 28.5294 15.8196 28.5258 15.6594C28.5258 14.9962 28.5258 14.3276 28.5704 13.659C28.6461 12.7049 28.7951 11.7573 29.0162 10.8242C29.0422 10.6992 29.0913 10.5796 29.1611 10.4712V10.4552Z" fill="#3A3B7B"/>
<path fill-rule="evenodd" clip-rule="evenodd" d="M4.16231 21.9687C4.09651 22.1097 4.07847 22.2668 4.11062 22.4181C4.13201 22.6175 4.179 22.8136 4.2505 23.002C4.33978 23.2326 4.43968 23.4607 4.56285 23.7419C4.59118 23.8066 4.62078 23.8741 4.65176 23.9452C4.81787 24.326 5.02629 24.8128 5.3043 25.5172C5.38299 25.7174 5.45287 25.9191 5.52323 26.1223C5.55166 26.2043 5.58019 26.2867 5.60939 26.3692C5.71406 26.6627 5.89416 26.9263 6.13289 27.1352C6.23426 27.25 6.36872 27.3337 6.51949 27.3755C6.6732 27.4182 6.83669 27.4155 6.98877 27.3678C7.14084 27.32 7.27442 27.2295 7.37214 27.1079C7.46795 26.9886 7.52492 26.8449 7.536 26.6948C7.59816 26.4024 7.57694 26.0992 7.47449 25.8173C7.3119 25.3492 7.12668 24.8804 6.9131 24.4219L6.91212 24.4199C6.56076 23.7026 6.2036 22.9902 5.82954 22.2775L5.82674 22.2725C5.71724 22.0869 5.57493 21.9209 5.40622 21.782C5.29668 21.6581 5.1456 21.5745 4.97875 21.5457C4.80835 21.5163 4.6326 21.546 4.48289 21.6294C4.34126 21.707 4.22899 21.8258 4.16231 21.9687Z" fill="#3A3B7B"/>
<path fill-rule="evenodd" clip-rule="evenodd" d="M9.52883 20.2023C8.97791 20.0653 8.40254 20.0454 7.84283 20.1438C7.4093 20.1848 6.98293 20.2808 6.68686 20.4709C6.53627 20.5676 6.41452 20.6919 6.3468 20.8498C6.27871 21.0086 6.27002 21.1902 6.32582 21.3925C6.4277 21.7631 6.56001 22.1234 6.69186 22.4826L6.71321 22.5407L6.71373 22.542C7.11071 23.5855 7.51147 24.6254 7.91587 25.6617C7.96303 25.825 8.02972 25.9825 8.1146 26.1311L8.11619 26.1339C8.22831 26.3185 8.37211 26.4836 8.54153 26.6223C8.62626 26.6986 8.73105 26.7513 8.84466 26.7749C8.9594 26.7987 9.07872 26.7918 9.18962 26.7549C9.30057 26.7181 9.39881 26.6527 9.47368 26.5659C9.54734 26.4805 9.59557 26.3776 9.61328 26.2682C9.68638 25.9708 9.66296 25.6591 9.54612 25.3748C9.50967 25.2792 9.48107 25.1814 9.45092 25.0785C9.44087 25.0442 9.43069 25.0093 9.41994 24.9737C10.3456 24.6264 11.3306 24.1594 11.677 23.0731C11.8126 22.6976 11.8239 22.2911 11.7093 21.9092C11.5946 21.5269 11.3593 21.1881 11.0358 20.9393C10.5955 20.5911 10.0812 20.3395 9.52883 20.2023ZM8.00173 21.5348C8.01996 21.5297 8.03832 21.5251 8.05674 21.5207C8.6594 21.4298 9.27599 21.5509 9.79298 21.8618C10.0208 22.0139 10.1142 22.1829 10.1302 22.3454C10.1467 22.5128 10.0833 22.6942 9.95591 22.8686C9.71517 23.198 9.27585 23.4617 8.87901 23.5108C8.58972 22.8714 8.29593 22.2061 8.00173 21.5348Z" fill="#3A3B7B"/>
<path d="M13.2018 19.0318C13.8578 18.741 14.6705 18.6908 15.3065 18.8952C15.4666 18.94 15.6056 19.0369 15.6996 19.1692C15.793 19.3008 15.836 19.4593 15.8217 19.6177C15.8207 19.7206 15.7944 19.8218 15.7449 19.9131C15.6945 20.006 15.6216 20.0859 15.5322 20.1461C15.4429 20.2063 15.3397 20.245 15.2315 20.2588C15.1233 20.2726 15.0132 20.2612 14.9105 20.2256L14.9027 20.2229L14.8954 20.2192C14.8429 20.1928 14.7871 20.1729 14.7293 20.16L14.7257 20.1592C14.2783 20.0452 13.8564 20.2341 13.7022 20.4663C13.6287 20.577 13.6196 20.6888 13.6808 20.7904C13.7464 20.8993 13.9072 21.0215 14.2326 21.1086C14.3221 21.1321 14.4139 21.1549 14.5069 21.178C14.7642 21.242 15.0317 21.3084 15.2903 21.4005L15.2912 21.4008C16.4842 21.8365 16.9285 22.7388 16.7764 23.5874C16.6259 24.4266 15.8957 25.1904 14.7975 25.3706C14.3979 25.4556 13.9821 25.439 13.5911 25.3225C13.1992 25.2057 12.8459 24.9925 12.5664 24.704L12.5591 24.6965C12.4709 24.5878 12.4115 24.4601 12.3852 24.3246C12.361 24.2024 12.3737 24.076 12.4219 23.9605C12.4697 23.8456 12.5507 23.7462 12.6551 23.6737C12.7655 23.5916 12.8985 23.5423 13.0377 23.5321C13.1765 23.5218 13.3153 23.5508 13.4372 23.6153C13.5589 23.6717 13.6721 23.7437 13.7737 23.8293L13.7756 23.8309C13.9553 23.9886 14.1728 24.0297 14.3813 23.9917C14.5929 23.953 14.7919 23.8329 14.9198 23.6735C15.047 23.515 15.098 23.3269 15.0374 23.1442C14.9765 22.9602 14.7932 22.754 14.3906 22.5816C14.2853 22.5387 14.1762 22.5041 14.0627 22.4705C14.0321 22.4614 14.001 22.4523 13.9695 22.4432C13.8855 22.4187 13.7991 22.3935 13.7145 22.3658C13.6561 22.3467 13.5983 22.3286 13.541 22.3107C13.3844 22.2617 13.2317 22.214 13.0847 22.15C12.7649 22.0455 12.4886 21.8448 12.297 21.5777C12.1045 21.3095 12.0077 20.9888 12.0208 20.6634C12.0219 19.8705 12.5422 19.3242 13.2018 19.0318Z" fill="#3A3B7B"/>
<path d="M21.5196 18.9474C21.3923 18.8877 21.2517 18.8594 21.1102 18.865C20.9688 18.8706 20.831 18.9099 20.7093 18.9794C20.5884 19.0484 20.4872 19.145 20.4147 19.2606C20.3482 19.358 20.3021 19.4669 20.2792 19.5813C20.2562 19.6956 20.2568 19.813 20.2808 19.927C20.3045 20.0736 20.3307 20.2161 20.3567 20.3566C20.3996 20.5891 20.4414 20.8165 20.469 21.0482L20.47 21.0541C20.5328 21.4176 20.5656 21.7852 20.5686 22.1536L20.5689 22.1588C20.5903 22.5567 20.4491 22.9468 20.1754 23.2464L20.1711 23.2517C20.082 23.3612 19.963 23.4448 19.8272 23.4931C19.6915 23.5414 19.5445 23.5525 19.4026 23.5252C19.2606 23.4978 19.1294 23.4331 19.0236 23.3383C18.9178 23.2435 18.8415 23.1219 18.8034 22.9879C18.7221 22.7054 18.675 22.4149 18.663 22.1221L18.8019 19.9997C18.804 19.972 18.8063 19.9435 18.8087 19.9148C18.814 19.8503 18.8194 19.7847 18.8217 19.7234C18.8249 19.6333 18.8221 19.5407 18.8003 19.453C18.7779 19.3633 18.7353 19.278 18.6598 19.2054C18.585 19.1335 18.484 19.0805 18.357 19.0444C18.1273 18.9806 17.9331 18.9826 17.7712 19.0485C17.6093 19.1144 17.4983 19.2368 17.4198 19.3782C17.3419 19.5184 17.2919 19.6844 17.254 19.8507C17.2259 19.974 17.2033 20.1035 17.1819 20.2268C17.1745 20.2693 17.1672 20.311 17.1599 20.3515L17.1597 20.3527C17.0449 21.0287 17.0107 21.7152 17.0578 22.3986C17.0666 22.768 17.1469 23.1326 17.2946 23.4738C17.4612 23.914 17.763 24.2954 18.1601 24.5677C18.558 24.8406 19.0329 24.9909 19.5219 24.9988C20.0108 25.0068 20.4908 24.8719 20.8981 24.6122C21.3048 24.3529 21.62 23.9812 21.802 23.5463C22.0566 22.9923 22.1761 22.3899 22.1514 21.7848C22.1365 21.3431 22.1114 20.898 22.0865 20.4552C22.0743 20.238 22.0621 20.0212 22.0511 19.8057C22.0456 19.5897 21.9714 19.3805 21.8384 19.2061C21.7561 19.0958 21.6465 19.0069 21.5196 18.9474Z" fill="#3A3B7B"/>
<path d="M26.0222 22.2754C26.0093 22.2911 25.9957 22.3074 25.9815 22.3243C25.878 21.7514 25.7821 21.1787 25.6861 20.6051C25.6516 20.3993 25.617 20.1926 25.5822 19.9865L25.5782 19.9635L25.5655 19.9436C25.5415 19.9063 25.5392 19.8696 25.5392 19.7914V19.7824L25.5377 19.7734C25.5117 19.612 25.4356 19.4618 25.3194 19.3424C25.2035 19.2233 25.053 19.1405 24.8874 19.1045C24.7221 19.0654 24.5484 19.074 24.3881 19.1293C24.2283 19.1845 24.0889 19.2837 23.9875 19.4145C23.9032 19.5148 23.8341 19.6261 23.7823 19.745C23.6648 20.0012 23.5462 20.258 23.4273 20.5155L23.4252 20.52C23.1284 21.1628 22.8296 21.81 22.5395 22.4623L22.5386 22.4644C22.3605 22.8874 22.2134 23.333 22.0669 23.7773C22.0376 23.866 22.0084 23.9546 21.9789 24.043C21.926 24.1832 21.9029 24.3321 21.9108 24.481C21.9012 24.6143 21.9344 24.7472 22.0061 24.8619C22.0792 24.9789 22.1887 25.0709 22.3191 25.1251C22.4574 25.1832 22.6119 25.1956 22.7584 25.1602C22.9045 25.1248 23.0342 25.0439 23.1272 24.9301C23.2459 24.7899 23.348 24.6371 23.4313 24.4751C23.6771 23.9926 23.912 23.5042 24.1458 23.0179C24.2363 22.8298 24.3242 22.6613 24.4242 22.4779C24.4311 22.5005 24.4381 22.5225 24.4453 22.5447C24.5501 22.9876 24.7271 23.4119 24.9696 23.8019C25.0155 23.8846 25.0794 23.9568 25.157 24.0136C25.2355 24.0711 25.3261 24.1115 25.4226 24.132C25.519 24.1525 25.6189 24.1526 25.7154 24.1323C25.8117 24.112 25.9026 24.0716 25.9811 24.0143L26.1366 23.9026L27.3435 22.927L27.2721 23.3635C27.1742 23.9635 27.077 24.5585 26.9737 25.1537C26.9061 25.4175 26.9062 25.693 26.974 25.9567C27.0033 26.1052 27.0781 26.2418 27.1888 26.3492C27.3004 26.4575 27.4433 26.5311 27.599 26.5605C27.7547 26.5898 27.9161 26.5736 28.062 26.5138C28.2059 26.4549 28.3282 26.3565 28.4138 26.231C28.6128 25.994 28.7366 25.7072 28.7706 25.4045C28.8219 24.9771 28.8797 24.5439 28.9376 24.1108C29.0043 23.6116 29.071 23.1126 29.1273 22.6231L29.1275 22.6216C29.1817 22.0858 29.2079 21.5478 29.2061 21.0095C29.218 20.8394 29.1739 20.6699 29.0798 20.5251C28.9855 20.3797 28.8457 20.2667 28.6806 20.2021C28.5088 20.1271 28.3165 20.1071 28.1319 20.145C27.9486 20.1826 27.7826 20.2753 27.6581 20.4097C27.4355 20.6073 27.2267 20.8188 27.0329 21.0427L27.0316 21.0442C26.8202 21.2971 26.6101 21.555 26.4014 21.8112C26.2746 21.967 26.148 22.1224 26.0222 22.2754Z" fill="#3A3B7B"/>
</g>
<defs>
<clipPath id="clip0_211_2056">
<rect width="32.7153" height="20.186" fill="white" transform="translate(1.1604 7.21968)"/>
</clipPath>
</defs>
</svg>
